<?xml version="1.0" encoding="UTF-8"?><svg id="Layer_2" xmlns="http://www.w3.org/2000/svg" viewBox="0 0 275.35 125.96"><defs><style>.cls-1{fill:none;stroke:#fff;stroke-miterlimit:10;stroke-width:5px;}</style></defs><g id="Layer_2-2"><g><path class="cls-1" d="M71.8,4.48h-17.1L2.5,79.18v10.26H56.86v32.04h14.94v-32.04h16.38v-12.24h-16.38V4.48Zm-14.94,33.66v39.06H18.52v-.36l28.62-39.78c3.24-5.4,6.12-10.44,9.72-17.28h.54c-.36,6.12-.54,12.24-.54,18.36Z"/><path class="cls-1" d="M139.48,2.5c-23.76,0-40.86,21.42-40.86,60.84,.36,38.7,16.02,60.12,38.88,60.12,25.74,0,40.68-21.96,40.68-61.74,0-37.26-14.22-59.22-38.7-59.22Zm-1.08,108.72c-14.4,0-23.76-17.28-23.76-47.7s10.08-48.78,23.76-48.78c16.56,0,23.76,18.9,23.76,47.7s-7.74,48.78-23.76,48.78Z"/><path class="cls-1" d="M256.47,77.2V4.48h-17.1l-52.2,74.7v10.26h54.36v32.04h14.94v-32.04h16.38v-12.24h-16.38Zm-14.94-39.06v39.06h-38.34v-.36l28.62-39.78c3.24-5.4,6.12-10.44,9.72-17.28h.54c-.36,6.12-.54,12.24-.54,18.36Z"/></g></g></svg>