<svg xmlns="http://www.w3.org/2000/svg" width="48.485" height="51.717" viewBox="0 0 48.485 51.717">
  <path id="Icon_metro-calendar" data-name="Icon metro-calendar" d="M18.732,21.322H25.2v6.465H18.732Zm9.7,0h6.465v6.465H28.429Zm9.7,0h6.465v6.465H38.126ZM9.035,40.716H15.5v6.465H9.035Zm9.7,0H25.2v6.465H18.732Zm9.7,0h6.465v6.465H28.429Zm-9.7-9.7H25.2v6.465H18.732Zm9.7,0h6.465v6.465H28.429Zm9.7,0h6.465v6.465H38.126Zm-29.091,0H15.5v6.465H9.035ZM44.591,1.928V5.16H38.126V1.928H15.5V5.16H9.035V1.928H2.571V53.645H51.056V1.928H44.591Zm3.232,48.485H5.8V14.857h42.02Z" transform="translate(-2.571 -1.928)" fill="#fff"/>
</svg>
