<svg xmlns="http://www.w3.org/2000/svg" width="52.5" height="60" viewBox="0 0 52.5 60">
  <path id="Icon_awesome-discord" data-name="Icon awesome-discord" d="M34.83,28.5a3.071,3.071,0,1,1-3.06-3.33A3.2,3.2,0,0,1,34.83,28.5ZM20.82,25.17a3.342,3.342,0,0,0,0,6.66,3.2,3.2,0,0,0,3.06-3.33A3.177,3.177,0,0,0,20.82,25.17ZM52.5,6.18V60c-7.558-6.679-5.141-4.468-13.92-12.63l1.59,5.55H6.15A6.165,6.165,0,0,1,0,46.74V6.18A6.165,6.165,0,0,1,6.15,0h40.2A6.165,6.165,0,0,1,52.5,6.18ZM43.95,34.62a40.175,40.175,0,0,0-4.32-17.49,14.835,14.835,0,0,0-8.43-3.15l-.42.48a19.966,19.966,0,0,1,7.47,3.81,25.491,25.491,0,0,0-22.41-.87c-1.11.51-1.77.87-1.77.87s2.49-2.37,7.89-3.93l-.3-.36a14.835,14.835,0,0,0-8.43,3.15A40.175,40.175,0,0,0,8.91,34.62s2.52,4.35,9.15,4.56c0,0,1.11-1.35,2.01-2.49a9.33,9.33,0,0,1-5.25-3.54c.441.309,1.169.709,1.23.75a21.868,21.868,0,0,0,18.72,1.05,17.167,17.167,0,0,0,3.45-1.77,9.466,9.466,0,0,1-5.43,3.57c.9,1.14,1.98,2.43,1.98,2.43C41.4,38.97,43.95,34.62,43.95,34.62Z" fill="#fff"/>
</svg>
