<svg xmlns="http://www.w3.org/2000/svg" width="44.515" height="43.402" viewBox="0 0 44.515 43.402">
  <path id="Icon_awesome-github" data-name="Icon awesome-github" d="M14.889,35.51c0,.179-.206.323-.467.323-.3.027-.5-.117-.5-.323,0-.179.206-.323.467-.323C14.656,35.16,14.889,35.3,14.889,35.51Zm-2.791-.4c-.063.179.117.386.386.44a.421.421,0,0,0,.556-.179c.054-.179-.117-.386-.386-.467A.461.461,0,0,0,12.1,35.106Zm3.967-.153c-.26.063-.44.233-.413.44.027.179.26.3.53.233s.44-.233.413-.413S16.325,34.927,16.065,34.954ZM21.97.563A21.521,21.521,0,0,0,0,22.461,22.5,22.5,0,0,0,15.212,43.928c1.149.206,1.553-.5,1.553-1.086,0-.556-.027-3.626-.027-5.51,0,0-6.282,1.346-7.6-2.674,0,0-1.023-2.612-2.495-3.285,0,0-2.055-1.409.144-1.382a4.737,4.737,0,0,1,3.464,2.315c1.965,3.464,5.259,2.468,6.543,1.876a4.988,4.988,0,0,1,1.436-3.024C13.211,30.6,8.149,29.874,8.149,21.24a6.8,6.8,0,0,1,2.118-5.286A8.479,8.479,0,0,1,10.5,9.86c1.876-.583,6.193,2.423,6.193,2.423a21.2,21.2,0,0,1,11.272,0s4.317-3.016,6.193-2.423a8.475,8.475,0,0,1,.233,6.094c1.436,1.589,2.315,2.827,2.315,5.286,0,8.661-5.286,9.352-10.3,9.917a5.307,5.307,0,0,1,1.526,4.164c0,3.024-.027,6.767-.027,7.5,0,.583.413,1.292,1.553,1.086a22.293,22.293,0,0,0,15.06-21.45C44.515,10.013,34.418.563,21.97.563ZM8.723,31.516c-.117.09-.09.3.063.467.144.144.35.206.467.09.117-.09.09-.3-.063-.467C9.047,31.462,8.84,31.4,8.723,31.516Zm-.969-.727c-.063.117.027.26.206.35a.267.267,0,0,0,.386-.063c.063-.117-.027-.26-.206-.35C7.961,30.673,7.817,30.7,7.754,30.789Zm2.908,3.195c-.144.117-.09.386.117.556.206.206.467.233.583.09.117-.117.063-.386-.117-.556C11.048,33.868,10.779,33.841,10.662,33.984ZM9.639,32.665c-.144.09-.144.323,0,.53s.386.3.5.206a.409.409,0,0,0,0-.556C10.016,32.638,9.782,32.548,9.639,32.665Z" transform="translate(0 -0.563)" fill="#fff"/>
</svg>
