<svg xmlns="http://www.w3.org/2000/svg" width="45.935" height="45.935" viewBox="0 0 45.935 45.935">
  <path id="Icon_awesome-linkedin" data-name="Icon awesome-linkedin" d="M42.654,2.25H3.271A3.3,3.3,0,0,0,0,5.562V44.873a3.3,3.3,0,0,0,3.271,3.312H42.654a3.3,3.3,0,0,0,3.281-3.312V5.562A3.3,3.3,0,0,0,42.654,2.25ZM13.883,41.622H7.075V19.7h6.818V41.622Zm-3.4-24.915a3.948,3.948,0,1,1,3.948-3.948A3.949,3.949,0,0,1,10.479,16.707ZM39.4,41.622H32.6V30.959c0-2.543-.051-5.814-3.537-5.814-3.548,0-4.091,2.768-4.091,5.629V41.622H18.159V19.7H24.69v2.994h.092a7.171,7.171,0,0,1,6.449-3.537c6.89,0,8.172,4.542,8.172,10.448Z" transform="translate(0 -2.25)" fill="#fff"/>
</svg>
