<?xml version="1.0" encoding="utf-8"?>
<!-- Generator: Adobe Illustrator 26.3.1, SVG Export Plug-In . SVG Version: 6.00 Build 0)  -->
<svg version="1.1" id="Layer_1" xmlns="http://www.w3.org/2000/svg" xmlns:xlink="http://www.w3.org/1999/xlink" x="0px" y="0px"
	 viewBox="0 0 36.9 36.9" style="enable-background:new 0 0 36.9 36.9;" xml:space="preserve">
<style type="text/css">
	.st0{fill:none;stroke:#661556;stroke-width:2;stroke-miterlimit:10;}
</style>
<path id="Icon_awesome-arrow-alt-circle-right" class="st0" d="M18.4,1C28,1,35.8,8.8,35.8,18.4S28,35.8,18.4,35.8S1,28.1,1,18.4
	l0,0C1,8.8,8.8,1,18.4,1L18.4,1z M10.3,21.5h8.2v5c0,0.5,0.4,0.8,0.8,0.8c0.2,0,0.4-0.1,0.6-0.2l8-8.1c0.3-0.3,0.3-0.9,0-1.2l0,0
	l-8-8.1c-0.3-0.3-0.9-0.3-1.2,0c-0.2,0.2-0.2,0.4-0.2,0.6v5h-8.2c-0.5,0-0.8,0.4-0.8,0.8v4.5C9.4,21.2,9.8,21.5,10.3,21.5z"/>
</svg>
