<svg xmlns="http://www.w3.org/2000/svg" width="56.557" height="45.935" viewBox="0 0 56.557 45.935">
  <path id="Icon_awesome-twitter" data-name="Icon awesome-twitter" d="M50.743,14.828c.036.5.036,1,.036,1.507,0,15.323-11.663,32.98-32.98,32.98A32.756,32.756,0,0,1,0,44.112a23.979,23.979,0,0,0,2.8.143A23.214,23.214,0,0,0,17.19,39.3,11.612,11.612,0,0,1,6.352,31.265a14.618,14.618,0,0,0,2.189.179,12.26,12.26,0,0,0,3.05-.395A11.593,11.593,0,0,1,2.3,19.673V19.53A11.674,11.674,0,0,0,7.536,21,11.609,11.609,0,0,1,3.947,5.5a32.948,32.948,0,0,0,23.9,12.13,13.085,13.085,0,0,1-.287-2.656A11.6,11.6,0,0,1,47.621,7.041a22.821,22.821,0,0,0,7.357-2.8,11.56,11.56,0,0,1-5.1,6.388,23.237,23.237,0,0,0,6.675-1.794,24.917,24.917,0,0,1-5.813,5.993Z" transform="translate(0 -3.381)" fill="#fff"/>
</svg>
