<svg xmlns="http://www.w3.org/2000/svg" width="37.344" height="37.335" viewBox="0 0 37.344 37.335">
  <path id="Icon_ionic-ios-globe" data-name="Icon ionic-ios-globe" d="M22.043,3.375H21.98a18.667,18.667,0,0,0,.009,37.335h.063a18.667,18.667,0,1,0-.009-37.335ZM38.215,20.786H31.251a35.342,35.342,0,0,0-.88-6.839,27.34,27.34,0,0,0,4.46-1.885A16.079,16.079,0,0,1,38.215,20.786Zm-17.429,0H15.24a31.9,31.9,0,0,1,.79-6.2,27.3,27.3,0,0,0,4.757.637Zm0,2.513v5.555a27.421,27.421,0,0,0-4.757.637,31.9,31.9,0,0,1-.79-6.193Zm2.513,0h5.5a31.712,31.712,0,0,1-.79,6.184,26.789,26.789,0,0,0-4.712-.628Zm0-2.513V15.222a27.421,27.421,0,0,0,4.712-.628,31.806,31.806,0,0,1,.79,6.193ZM33.117,10.2a24.932,24.932,0,0,1-3.41,1.391A18.531,18.531,0,0,0,27.329,6.7,16.24,16.24,0,0,1,33.117,10.2Zm-5.78,2.037a25.258,25.258,0,0,1-4.039.538V6.193C24.825,7.019,26.315,9.235,27.338,12.242ZM20.786,6.157v6.614a24.822,24.822,0,0,1-4.084-.547C17.744,9.191,19.251,6.974,20.786,6.157Zm-4.092.574a18.677,18.677,0,0,0-2.36,4.855A25.493,25.493,0,0,1,10.968,10.2,16,16,0,0,1,16.694,6.732Zm-7.44,5.34a26.8,26.8,0,0,0,4.416,1.867,33.918,33.918,0,0,0-.88,6.839H5.879A16,16,0,0,1,9.253,12.071ZM5.87,23.3h6.911a35.252,35.252,0,0,0,.88,6.839A28.434,28.434,0,0,0,9.244,32,16.081,16.081,0,0,1,5.87,23.3ZM10.959,33.88A25.117,25.117,0,0,1,14.333,32.5a18.743,18.743,0,0,0,2.36,4.864A16.4,16.4,0,0,1,10.959,33.88ZM16.7,31.852a24.952,24.952,0,0,1,4.084-.547v6.623C19.242,37.111,17.744,34.885,16.7,31.852Zm6.6,6.04V31.3a25.258,25.258,0,0,1,4.039.538C26.315,34.849,24.825,37.066,23.3,37.892Zm4.039-.512a18.53,18.53,0,0,0,2.378-4.891,24.522,24.522,0,0,1,3.41,1.4A16.427,16.427,0,0,1,27.338,37.38Zm7.494-5.367a27.34,27.34,0,0,0-4.46-1.885,35.158,35.158,0,0,0,.88-6.83h6.964A16.008,16.008,0,0,1,34.832,32.013Z" transform="translate(-3.375 -3.375)" fill="#fff"/>
</svg>
