<svg id="Layer_1" data-name="Layer 1" xmlns="http://www.w3.org/2000/svg" viewBox="0 0 1435.05 743.19"><defs><style>.cls-1{fill:none;stroke:#fff;stroke-miterlimit:10;stroke-width:8px;}</style></defs><polygon class="cls-1" points="38.28 216.99 145.21 216.99 145.21 188.57 38.28 188.57 38.28 125.44 129.1 125.44 129.1 97.02 38.28 97.02 38.28 32.42 145.21 32.42 145.21 4 38.28 4 22.9 4 8.39 4 8.39 216.99 22.9 216.99 38.28 216.99"/><polygon class="cls-1" points="197.8 216.99 246.15 134.3 295.06 216.99 328.61 216.99 261.7 108.21 325.39 4 291.84 4 245.97 82.29 199.56 4 166.01 4 230.4 108.36 164.25 216.99 197.8 216.99"/><polygon class="cls-1" points="400.53 216.99 430.42 216.99 430.42 32.42 490.62 32.42 490.62 4 340.33 4 340.33 32.42 400.53 32.42 400.53 216.99"/><polygon class="cls-1" points="656.73 188.57 549.8 188.57 549.8 125.44 640.62 125.44 640.62 97.02 549.8 97.02 549.8 32.42 656.73 32.42 656.73 4 549.8 4 534.42 4 519.92 4 519.92 216.99 534.42 216.99 549.8 216.99 656.73 216.99 656.73 188.57"/><polygon class="cls-1" points="829.15 216.84 856.54 216.84 856.54 4 826.95 4 826.95 163.09 726.31 4 699.22 4 699.22 216.84 728.8 216.84 728.8 60.17 829.15 216.84"/><path class="cls-1" d="M939.16,217h37.5q25.62,0,43.87-8.94A62.18,62.18,0,0,0,1048.29,182q9.51-17.14,9.52-41.31V80.32q0-24.16-9.52-41.31a62.22,62.22,0,0,0-27.69-26.07Q1002.44,4,976.8,4H909.27V217h29.89ZM977.68,32.42q23.58,0,36.55,12.23t13,34.5v62.69q0,22.28-13,34.5t-36.55,12.23H939.16V32.42Z"/><polygon class="cls-1" points="1117.72 4 1103.22 4 1103.22 216.99 1117.72 216.99 1133.1 216.99 1240.04 216.99 1240.04 188.57 1133.1 188.57 1133.1 125.44 1223.92 125.44 1223.92 97.02 1133.1 97.02 1133.1 32.42 1240.04 32.42 1240.04 4 1133.1 4 1117.72 4"/><path class="cls-1" d="M1421.53,39a62.22,62.22,0,0,0-27.69-26.07Q1375.68,4,1350,4h-67.52V217h67.38q25.63,0,43.87-8.94A62.18,62.18,0,0,0,1421.53,182q9.53-17.14,9.52-41.31V80.32Q1431.05,56.15,1421.53,39Zm-21.09,102.83q0,22.28-13,34.5t-36.55,12.23H1312.4V32.42h38.52q23.6,0,36.55,12.23t13,34.5Z"/><path class="cls-1" d="M125.22,379.28A53.9,53.9,0,0,0,147,357.68q7.75-14,7.76-32.3T147,293.08a53.33,53.33,0,0,0-21.68-21.61q-14-7.62-32.44-7.62H8.39V477H38.28V386.9H82.77L128.22,477h35.45l-49.11-93.21A58.77,58.77,0,0,0,125.22,379.28Zm-86.94-87H94.09a27.91,27.91,0,0,1,15.16,4.1A27.28,27.28,0,0,1,119.36,308a43.77,43.77,0,0,1,0,34.72,27,27,0,0,1-10.18,11.64,27.94,27.94,0,0,1-15.09,4.1H38.28Z"/><polygon class="cls-1" points="218.45 264 203.95 264 203.95 476.99 218.45 476.99 233.83 476.99 340.77 476.99 340.77 448.57 233.83 448.57 233.83 385.44 324.65 385.44 324.65 357.02 233.83 357.02 233.83 292.42 340.77 292.42 340.77 264 233.83 264 218.45 264"/><path class="cls-1" d="M441.26,264,362.74,477H395l16-46.73h86L513,477h32.23L466.74,264ZM420.78,401.84,454,305.16l33.22,96.68Z"/><polygon class="cls-1" points="607.37 264 577.49 264 577.49 476.99 592.43 476.99 607.37 476.99 714.3 476.99 714.3 448.57 607.37 448.57 607.37 264"/><rect class="cls-1" x="749.46" y="264" width="29.88" height="212.99"/><polygon class="cls-1" points="814.5 292.42 874.7 292.42 874.7 476.99 904.59 476.99 904.59 292.42 964.79 292.42 964.79 264 814.5 264 814.5 292.42"/><polygon class="cls-1" points="1054.88 360.09 1008.3 264 975.04 264 1039.94 390.42 1039.94 476.99 1069.82 476.99 1069.82 390.42 1134.71 264 1101.46 264 1054.88 360.09"/><path class="cls-1" d="M40,574.9a41.86,41.86,0,0,1,15.23-17.65A41.36,41.36,0,0,1,78.12,551a41.33,41.33,0,0,1,18.17,4.25,45.61,45.61,0,0,1,15.3,12.09,47.29,47.29,0,0,1,9.3,17.79h30.62a83.21,83.21,0,0,0-14-33.25,71,71,0,0,0-25.71-22.19,73.16,73.16,0,0,0-33.69-7.84q-22.13,0-38.89,9.89a67.08,67.08,0,0,0-26,27.91Q4,577.62,4,601.34v58.45q0,23.73,9.23,41.75a66.63,66.63,0,0,0,26,27.83Q56,739.2,78.12,739.19a72.91,72.91,0,0,0,33.55-7.84,71.7,71.7,0,0,0,25.78-22.19,82.73,82.73,0,0,0,14.06-33.26H120.89a46.29,46.29,0,0,1-9.3,18.46,42.85,42.85,0,0,1-15.23,11.72,43.6,43.6,0,0,1-18.24,4,41.74,41.74,0,0,1-22.85-6.23A41.21,41.21,0,0,1,40,686.16q-5.43-11.43-5.42-26.37V601.34Q34.62,586.26,40,574.9Z"/><polygon class="cls-1" points="220.94 524 191.06 524 191.06 736.99 206 736.99 220.94 736.99 327.88 736.99 327.88 708.57 220.94 708.57 220.94 524"/><path class="cls-1" d="M474.07,661q0,23.29-11.79,36T429,709.74q-21.39,0-33.1-12.74t-11.72-36V524H354.24V659.94q0,25,8.79,42.84a61.06,61.06,0,0,0,25.56,27.1q16.79,9.32,40.36,9.31,23.73,0,40.58-9.31a60.93,60.93,0,0,0,25.63-27.1Q503.95,685,504,659.94V524H474.07Z"/><path class="cls-1" d="M680.46,637a46.92,46.92,0,0,0-22.26-9.15q12.88-2.34,21.61-9.16a42.53,42.53,0,0,0,13-16.4A50.33,50.33,0,0,0,697,581.71q0-17.87-6.89-30.76A46.74,46.74,0,0,0,669.33,531q-13.92-7-34.57-7H550.83V737h86.42q18.9,0,33.11-7.18a51.2,51.2,0,0,0,21.82-20.36q7.62-13.19,7.62-30.47v-.44a55.48,55.48,0,0,0-5-23.44A47.82,47.82,0,0,0,680.46,637Zm-51.12-85.32q18.75,0,28.13,7.91t9.37,23.87q0,15.24-8.42,23t-25,7.76H580.56V551.69Zm40.28,124.65q0,15.67-10.4,24.32t-33.1,8.64H580.56V641.19h52.88q12.6,0,20.66,4.17a25.91,25.91,0,0,1,11.79,11.94q3.74,7.77,3.73,18.6Z"/></svg>