<?xml version="1.0" encoding="UTF-8"?><svg id="Layer_2" xmlns="http://www.w3.org/2000/svg" viewBox="0 0 813.89 135.43"><defs><style>.cls-1{fill:none;stroke:#fff;stroke-miterlimit:10;stroke-width:5px;}</style></defs><g id="Layer_1-2"><g><path class="cls-1" d="M50.7,3.82L3.59,131.61H22.92l9.63-28.04h51.57l9.63,28.04h19.34L65.99,3.82h-15.29Zm-12.28,82.71L58.34,28.52l19.93,58.01H38.41Z"/><path class="cls-1" d="M210.22,71.63c-3.75-2.9-8.2-4.73-13.36-5.49,5.16-.94,9.48-2.77,12.96-5.49,3.49-2.72,6.08-6.01,7.78-9.84,1.7-3.84,2.55-7.95,2.55-12.35,0-7.15-1.38-13.3-4.13-18.46-2.75-5.16-6.91-9.14-12.48-11.95-5.57-2.81-12.48-4.22-20.74-4.22h-50.36v127.79h51.86c7.56,0,14.18-1.44,19.86-4.31,5.68-2.87,10.05-6.94,13.1-12.22,3.05-5.27,4.57-11.37,4.57-18.28v-.26c0-5.04-1-9.73-2.99-14.06-1.99-4.34-4.86-7.95-8.61-10.85Zm-30.67-51.2c7.5,0,13.12,1.58,16.88,4.75,3.75,3.16,5.62,7.94,5.62,14.33s-1.69,10.69-5.05,13.8c-3.37,3.11-8.36,4.66-14.99,4.66h-31.73V20.43h29.27Zm24.17,74.79c0,6.27-2.08,11.13-6.24,14.59-4.16,3.46-10.78,5.19-19.86,5.19h-27.33v-40.87h31.73c5.04,0,9.17,.83,12.39,2.5,3.22,1.67,5.58,4.06,7.08,7.16,1.49,3.11,2.24,6.83,2.24,11.16v.26Z"/><path class="cls-1" d="M311.82,8.34c-6.8-3.9-14.65-5.84-23.55-5.84s-16.76,1.95-23.55,5.84c-6.8,3.9-12.06,9.4-15.78,16.52-3.72,7.12-5.58,15.37-5.58,24.74v36.21c0,9.38,1.86,17.62,5.58,24.74,3.72,7.12,8.98,12.63,15.78,16.52,6.8,3.9,14.65,5.84,23.55,5.84s16.76-1.95,23.55-5.84c6.8-3.9,12.05-9.4,15.78-16.52,3.72-7.12,5.58-15.37,5.58-24.74V49.61c0-9.37-1.86-17.62-5.58-24.74-3.72-7.12-8.98-12.63-15.78-16.52Zm2.99,78.09c0,5.74-1.1,10.8-3.3,15.16-2.2,4.37-5.3,7.73-9.32,10.11-4.01,2.37-8.66,3.56-13.93,3.56s-9.92-1.19-13.93-3.56c-4.01-2.37-7.12-5.74-9.32-10.11-2.2-4.36-3.3-9.42-3.3-15.16V48.99c0-5.74,1.1-10.8,3.3-15.16,2.2-4.36,5.3-7.73,9.32-10.11,4.01-2.37,8.66-3.56,13.93-3.56s9.92,1.19,13.93,3.56c4.01,2.37,7.12,5.74,9.32,10.11,2.2,4.37,3.3,9.42,3.3,15.16v37.44Z"/><path class="cls-1" d="M428.8,86c0,9.32-2.36,16.52-7.08,21.62-4.72,5.1-11.38,7.65-20,7.65s-15.18-2.55-19.86-7.65c-4.69-5.1-7.03-12.3-7.03-21.62V3.82h-17.93V85.38c0,10.02,1.76,18.59,5.27,25.71s8.63,12.54,15.34,16.26c6.71,3.72,14.78,5.58,24.21,5.58s17.61-1.86,24.35-5.58c6.74-3.72,11.87-9.14,15.38-16.26s5.27-15.69,5.27-25.71V3.82h-17.93V86Z"/><polygon class="cls-1" points="459.04 20.87 495.16 20.87 495.16 131.61 513.09 131.61 513.09 20.87 549.21 20.87 549.21 3.82 459.04 3.82 459.04 20.87"/><path class="cls-1" d="M681.75,86c0,9.32-2.36,16.52-7.08,21.62-4.72,5.1-11.38,7.65-20,7.65s-15.18-2.55-19.86-7.65c-4.69-5.1-7.03-12.3-7.03-21.62V3.82h-17.93V85.38c0,10.02,1.76,18.59,5.27,25.71s8.63,12.54,15.34,16.26c6.71,3.72,14.78,5.58,24.21,5.58s17.61-1.86,24.35-5.58c6.74-3.72,11.87-9.14,15.38-16.26s5.27-15.69,5.27-25.71V3.82h-17.93V86Z"/><path class="cls-1" d="M806.16,75.93c-3.49-4.83-7.82-8.33-13.01-10.5-5.19-2.17-11.65-4.04-19.38-5.62-.29-.06-.62-.12-.97-.18-.35-.06-.67-.12-.97-.18-.23-.06-.45-.1-.66-.13-.21-.03-.43-.07-.66-.13-6.62-1.29-11.79-2.53-15.51-3.74-3.72-1.2-6.83-3.06-9.32-5.58-2.49-2.52-3.74-5.98-3.74-10.37v-.09c0-6.39,2.42-11.32,7.25-14.81,4.83-3.49,11.62-5.23,20.35-5.23,4.86,0,9.71,.89,14.55,2.68,4.83,1.79,9.68,4.47,14.55,8.04l10.2-14.24c-4.16-2.99-8.39-5.46-12.7-7.43-4.31-1.96-8.67-3.44-13.1-4.44-4.42-1-8.92-1.49-13.49-1.49-9.55,0-17.73,1.47-24.52,4.39-6.8,2.93-11.97,7.19-15.51,12.79-3.55,5.6-5.32,12.35-5.32,20.26v.09c0,9.02,1.9,15.98,5.71,20.87,3.81,4.89,8.39,8.26,13.75,10.11s12.32,3.5,20.87,4.97l1.32,.26c.18,.06,.37,.09,.57,.09s.4,.03,.57,.09c5.8,1.05,10.53,2.21,14.19,3.47,3.66,1.26,6.65,3.19,8.96,5.8,2.31,2.61,3.47,6.14,3.47,10.59v.09c0,6.27-2.55,11.12-7.65,14.55s-12.28,5.14-21.53,5.14c-6.86,0-13.21-1.05-19.07-3.16-5.86-2.11-11.22-5.27-16.08-9.49l-11.16,13.71c4.16,3.52,8.63,6.45,13.4,8.79,4.77,2.34,9.92,4.1,15.42,5.27,5.51,1.17,11.34,1.76,17.49,1.76,9.9,0,18.35-1.45,25.36-4.35,7-2.9,12.35-7.12,16.04-12.66s5.54-12.2,5.54-20v-.18c0-8.38-1.74-14.99-5.23-19.82Z"/></g></g></svg>