<svg xmlns="http://www.w3.org/2000/svg" width="92.802" height="90.51" viewBox="0 0 92.802 90.51">
  <path id="Icon_metro-tools" data-name="Icon metro-tools" d="M92.882,19.557A22.254,22.254,0,0,1,61.338,47.475L55.182,54.2l4.392,4.41L62.2,55.983a3.43,3.43,0,0,1,4.858,0l21.285,21.5a3.43,3.43,0,0,1,0,4.858l-9.715,9.715a3.43,3.43,0,0,1-4.858,0l-21.285-21.5a3.43,3.43,0,0,1,0-4.858l2.4-2.4L50.7,59.1,21.259,91.264a6.867,6.867,0,0,1-9.715,0L9.115,88.835a6.867,6.867,0,0,1,0-9.715L42.65,51.034,20.377,28.7l-7.034,0L5.2,15.61l6.552-6.562L25.141,17.24l.087,6.888L47.759,46.747l6.555-5.488A22.277,22.277,0,0,1,80.706,7.438L66.273,21.671,78.421,33.819,92.882,19.557ZM17.171,82.546a3.436,3.436,0,1,0,0,4.861A3.437,3.437,0,0,0,17.171,82.546Z" transform="translate(-3.301 -4.267)" fill="none" stroke="#fff" stroke-width="3"/>
</svg>
