<?xml version="1.0" encoding="UTF-8"?><svg id="Layer_2" xmlns="http://www.w3.org/2000/svg" viewBox="0 0 595.27 135.25"><defs><style>.cls-1{fill:none;stroke:#fff;stroke-miterlimit:10;stroke-width:5px;}</style></defs><g id="Layer_2-2"><g><polygon class="cls-1" points="17.27 73.16 62.79 73.16 62.79 59.89 17.27 59.89 17.27 17.97 66.48 17.97 66.48 4.61 2.5 4.61 2.5 130.64 69.3 130.64 69.3 117.29 17.27 117.29 17.27 73.16"/><path class="cls-1" d="M135.74,104.37c-.7,1.99-1.3,3.94-1.8,5.84-.5,1.9-.87,3.74-1.1,5.49h-.35c-.29-2.11-.65-4.1-1.05-5.98-.41-1.87-.91-3.6-1.49-5.19L95.05,4.61h-16.44l45.7,126.04h16.26L187.25,4.61h-15.91l-35.6,99.76Z"/><polygon class="cls-1" points="220.12 73.16 265.64 73.16 265.64 59.89 220.12 59.89 220.12 17.97 269.34 17.97 269.34 4.61 205.35 4.61 205.35 130.64 272.15 130.64 272.15 117.29 220.12 117.29 220.12 73.16"/><path class="cls-1" d="M383.24,93.38c0,4.34,.07,8.06,.22,11.16,.15,3.11,.37,5.57,.66,7.38h-.35c-.35-.76-.95-1.85-1.8-3.25-.85-1.41-1.95-3.13-3.3-5.19L315.57,4.61h-19.16v126.04h14.77V39.59c0-4.45-.06-8.11-.18-10.99-.12-2.87-.29-4.98-.53-6.33h.53c.53,1.35,1.13,2.68,1.8,4,.67,1.32,1.42,2.62,2.24,3.91l64.86,100.46h18.11V4.61h-14.77V93.38Z"/><polygon class="cls-1" points="417.96 17.97 454.26 17.97 454.26 130.64 469.02 130.64 469.02 17.97 505.41 17.97 505.41 4.61 417.96 4.61 417.96 17.97"/><path class="cls-1" d="M584.51,74.22c-5.51-5.62-14.59-10.72-27.25-15.29-9.43-3.4-16.17-6.74-20.21-10.02-4.04-3.28-6.06-7.68-6.06-13.18,0-6.27,2.2-11.18,6.59-14.72,4.39-3.54,10.37-5.32,17.93-5.32,5.27,0,10.18,.5,14.72,1.49,4.54,1,9.21,2.61,14.02,4.83l5.54-11.87c-5.74-2.69-11.31-4.64-16.7-5.84-5.39-1.2-10.9-1.8-16.52-1.8-12.07,0-21.81,3.19-29.22,9.58-7.41,6.39-11.12,14.74-11.12,25.05,0,8.79,2.86,15.86,8.57,21.23s14.49,10.18,26.32,14.46c9.55,3.46,16.42,7.03,20.61,10.72,4.19,3.69,6.28,8.61,6.28,14.77,0,6.91-2.48,12.17-7.43,15.78-4.95,3.6-11.27,5.41-18.94,5.41-6.86,0-12.86-.76-18.02-2.29-5.16-1.52-10.31-3.96-15.47-7.29l-7.21,11.07c6.27,4.1,12.57,7.09,18.9,8.96s13.24,2.81,20.74,2.81c13.36,0,23.73-3.41,31.11-10.24,7.38-6.83,11.07-15.34,11.07-25.53,0-9.55-2.75-17.14-8.26-22.76Z"/></g></g></svg>