<svg xmlns="http://www.w3.org/2000/svg" width="120.088" height="61.553" viewBox="0 0 120.088 61.553">
  <path id="Icon_awesome-gamepad" data-name="Icon awesome-gamepad" d="M87.83,6.75H29.277a29.277,29.277,0,1,0,20.9,49.77H66.915A29.273,29.273,0,1,0,87.83,6.75ZM46.843,39.686a2.2,2.2,0,0,1-2.2,2.2H35.132V51.4a2.2,2.2,0,0,1-2.2,2.2H25.617a2.2,2.2,0,0,1-2.2-2.2V41.882H13.906a2.2,2.2,0,0,1-2.2-2.2V32.367a2.2,2.2,0,0,1,2.2-2.2h9.515V20.656a2.2,2.2,0,0,1,2.2-2.2h7.319a2.2,2.2,0,0,1,2.2,2.2v9.515h9.515a2.2,2.2,0,0,1,2.2,2.2ZM80.511,52.129a8.783,8.783,0,1,1,8.783-8.783A8.785,8.785,0,0,1,80.511,52.129ZM95.149,37.49a8.783,8.783,0,1,1,8.783-8.783A8.785,8.785,0,0,1,95.149,37.49Z" transform="translate(1.5 -5.25)" fill="none" stroke="#fff" stroke-width="3"/>
</svg>
