<?xml version="1.0" encoding="UTF-8"?><svg id="Layer_1" xmlns="http://www.w3.org/2000/svg" viewBox="0 0 817.64 295.43"><defs><style>.cls-1{fill:none;stroke:#fff;stroke-miterlimit:10;stroke-width:5px;}</style></defs><path class="cls-1" d="M604.2,62.79h-44.3v17.14h25.93v5.54c0,6.21-1.08,11.57-3.25,16.08-2.17,4.51-5.24,7.95-9.23,10.33-3.99,2.37-8.61,3.56-13.89,3.56s-10.03-1.14-14.11-3.43c-4.07-2.29-7.22-5.49-9.45-9.62-2.23-4.13-3.34-8.95-3.34-14.46V50.22c0-6.03,1.08-11.32,3.25-15.86,2.17-4.54,5.24-8.07,9.23-10.59,3.98-2.52,8.61-3.78,13.89-3.78,3.63,0,7.15,.81,10.55,2.42,3.4,1.61,6.36,3.96,8.88,7.03,2.52,3.08,4.31,6.75,5.36,11.03h19.42c-1.46-7.56-4.28-14.21-8.44-19.95-4.16-5.74-9.33-10.18-15.51-13.32-6.18-3.13-12.93-4.7-20.26-4.7-8.91,0-16.74,1.98-23.51,5.93s-12,9.54-15.69,16.74-5.54,15.56-5.54,25.05v37.71c0,8.96,1.88,16.85,5.62,23.64,3.75,6.8,9.04,12.06,15.86,15.78,6.83,3.72,14.75,5.58,23.77,5.58s16.74-1.98,23.51-5.93,12-9.55,15.69-16.79c3.69-7.24,5.54-15.6,5.54-25.09v-22.32Z"/><polygon class="cls-1" points="649.38 131.61 713.54 131.61 713.54 114.56 649.38 114.56 649.38 76.68 703.87 76.68 703.87 59.63 649.38 59.63 649.38 20.87 713.54 20.87 713.54 3.82 649.38 3.82 640.15 3.82 631.45 3.82 631.45 131.61 640.15 131.61 649.38 131.61"/><polygon class="cls-1" points="724.96 3.82 724.96 20.87 761.08 20.87 761.08 131.61 779.01 131.61 779.01 20.87 815.14 20.87 815.14 3.82 724.96 3.82"/><rect class="cls-1" x="2.5" y="163.82" width="17.93" height="127.79"/><polygon class="cls-1" points="128.71 259.27 68.33 163.82 52.07 163.82 52.07 291.52 69.82 291.52 69.82 197.52 130.03 291.52 146.46 291.52 146.46 163.82 128.71 163.82 128.71 259.27"/><polygon class="cls-1" points="218.62 264.01 187.95 163.82 168.44 163.82 210.1 291.61 227.15 291.61 268.81 163.82 249.3 163.82 218.62 264.01"/><path class="cls-1" d="M351.34,168.34c-6.8-3.9-14.65-5.84-23.55-5.84s-16.76,1.95-23.55,5.84c-6.8,3.9-12.06,9.4-15.78,16.52-3.72,7.12-5.58,15.37-5.58,24.74v36.21c0,9.38,1.86,17.62,5.58,24.74,3.72,7.12,8.98,12.63,15.78,16.52,6.8,3.9,14.65,5.84,23.55,5.84s16.76-1.95,23.55-5.84c6.8-3.9,12.05-9.4,15.78-16.52,3.72-7.12,5.58-15.37,5.58-24.74v-36.21c0-9.37-1.86-17.62-5.58-24.74-3.72-7.12-8.98-12.63-15.78-16.52Zm2.99,78.09c0,5.74-1.1,10.8-3.3,15.16-2.2,4.37-5.3,7.73-9.32,10.11-4.01,2.37-8.66,3.56-13.93,3.56s-9.92-1.19-13.93-3.56c-4.01-2.37-7.12-5.74-9.32-10.11-2.2-4.36-3.3-9.42-3.3-15.16v-37.44c0-5.74,1.1-10.8,3.3-15.16,2.2-4.36,5.3-7.73,9.32-10.11,4.01-2.37,8.66-3.56,13.93-3.56s9.92,1.19,13.93,3.56c4.01,2.37,7.12,5.74,9.32,10.11,2.2,4.37,3.3,9.42,3.3,15.16v37.44Z"/><polygon class="cls-1" points="417.87 163.82 399.94 163.82 399.94 291.61 408.91 291.61 417.87 291.61 482.03 291.61 482.03 274.56 417.87 274.56 417.87 163.82"/><polygon class="cls-1" points="533.97 264.01 503.3 163.82 483.79 163.82 525.45 291.61 542.5 291.61 584.16 163.82 564.65 163.82 533.97 264.01"/><polygon class="cls-1" points="612.2 163.82 603.5 163.82 603.5 291.61 612.2 291.61 621.43 291.61 685.59 291.61 685.59 274.56 621.43 274.56 621.43 236.68 675.92 236.68 675.92 219.63 621.43 219.63 621.43 180.87 685.59 180.87 685.59 163.82 621.43 163.82 612.2 163.82"/><path class="cls-1" d="M777.87,169.18c-7.27-3.57-16.03-5.36-26.28-5.36h-40.52v127.79h40.43c10.25,0,19.03-1.79,26.32-5.36,7.29-3.57,12.85-8.79,16.66-15.64,3.81-6.86,5.71-15.12,5.71-24.79v-36.21c0-9.67-1.9-17.93-5.71-24.79-3.81-6.86-9.35-12.07-16.61-15.64Zm3.96,77.34c0,8.91-2.59,15.81-7.78,20.7-5.19,4.89-12.5,7.34-21.93,7.34h-23.12v-93.69h23.12c9.43,0,16.74,2.45,21.93,7.34,5.19,4.89,7.78,11.79,7.78,20.7v37.62Z"/></svg>