<svg xmlns="http://www.w3.org/2000/svg" width="45.945" height="45.934" viewBox="0 0 45.945 45.934">
  <path id="Icon_awesome-instagram" data-name="Icon awesome-instagram" d="M22.972,13.428A11.777,11.777,0,1,0,34.749,25.2,11.758,11.758,0,0,0,22.972,13.428Zm0,19.434A7.657,7.657,0,1,1,30.629,25.2,7.67,7.67,0,0,1,22.972,32.861ZM37.978,12.946A2.747,2.747,0,1,1,35.231,10.2,2.741,2.741,0,0,1,37.978,12.946Zm7.8,2.788c-.174-3.68-1.015-6.939-3.71-9.625S36.123,2.584,32.443,2.4c-3.792-.215-15.159-.215-18.952,0-3.669.174-6.929,1.015-9.625,3.7S.341,12.044.156,15.724c-.215,3.792-.215,15.159,0,18.952.174,3.68,1.015,6.939,3.71,9.625s5.945,3.526,9.625,3.71c3.792.215,15.159.215,18.952,0,3.68-.174,6.939-1.015,9.625-3.71s3.526-5.945,3.71-9.625c.215-3.792.215-15.149,0-18.942Zm-4.9,23.011a7.752,7.752,0,0,1-4.366,4.366c-3.024,1.2-10.2.922-13.54.922s-10.527.266-13.54-.922a7.752,7.752,0,0,1-4.366-4.366c-1.2-3.024-.922-10.2-.922-13.54s-.266-10.527.922-13.54A7.752,7.752,0,0,1,9.432,7.3c3.024-1.2,10.2-.922,13.54-.922S33.5,6.11,36.512,7.3a7.752,7.752,0,0,1,4.366,4.366c1.2,3.024.922,10.2.922,13.54S42.078,35.731,40.879,38.745Z" transform="translate(0.005 -2.238)" fill="#fff"/>
</svg>
