<?xml version="1.0" encoding="UTF-8"?><svg id="Layer_2" xmlns="http://www.w3.org/2000/svg" viewBox="0 0 973.13 455.43"><defs><style>.cls-1{fill:none;}.cls-1,.cls-2{stroke:#fff;stroke-miterlimit:10;stroke-width:5px;}.cls-2{fill:#fff;}</style></defs><g id="Layer_6"><g><path class="cls-1" d="M70.97,8.34c-6.8-3.9-14.65-5.84-23.55-5.84s-16.76,1.95-23.55,5.84c-6.8,3.9-12.06,9.4-15.78,16.52-3.72,7.12-5.58,15.37-5.58,24.74v36.21c0,9.38,1.86,17.62,5.58,24.74,3.72,7.12,8.98,12.63,15.78,16.52,6.8,3.9,14.65,5.84,23.55,5.84s16.76-1.95,23.55-5.84c6.8-3.9,12.05-9.4,15.78-16.52,3.72-7.12,5.58-15.37,5.58-24.74V49.61c0-9.37-1.86-17.62-5.58-24.74-3.72-7.12-8.98-12.63-15.78-16.52Zm2.99,78.09c0,5.74-1.1,10.8-3.3,15.16-2.2,4.37-5.3,7.73-9.32,10.11-4.01,2.37-8.66,3.56-13.93,3.56s-9.92-1.19-13.93-3.56c-4.01-2.37-7.12-5.74-9.32-10.11-2.2-4.36-3.3-9.42-3.3-15.16V48.99c0-5.74,1.1-10.8,3.3-15.16,2.2-4.36,5.3-7.73,9.32-10.11,4.01-2.37,8.66-3.56,13.93-3.56s9.92,1.19,13.93,3.56c4.01,2.37,7.12,5.74,9.32,10.11,2.2,4.37,3.3,9.42,3.3,15.16v37.44Z"/><path class="cls-1" d="M136.67,127.35c6.71,3.72,14.78,5.58,24.21,5.58s17.61-1.86,24.35-5.58c6.74-3.72,11.87-9.14,15.38-16.26s5.27-15.69,5.27-25.71V3.82h-17.93V86c0,9.32-2.36,16.52-7.08,21.62-4.72,5.1-11.38,7.65-20,7.65s-15.18-2.55-19.86-7.65c-4.69-5.1-7.03-12.3-7.03-21.62V3.82h-17.93V85.38c0,10.02,1.76,18.59,5.27,25.71s8.63,12.54,15.34,16.26Z"/><path class="cls-1" d="M304.1,72.99c5.59-3.05,9.95-7.37,13.05-12.96,3.1-5.59,4.66-12.05,4.66-19.38s-1.54-13.78-4.61-19.38c-3.08-5.59-7.41-9.92-13.01-12.96-5.6-3.05-12.08-4.57-19.47-4.57h-50.71v127.88h17.93v-54.05h26.69l27.27,54.05h21.27l-29.47-55.93c2.24-.7,4.38-1.6,6.4-2.7Zm-52.16-52.21h33.49c3.46,0,6.49,.82,9.1,2.46,2.61,1.64,4.63,3.97,6.06,6.99,1.44,3.02,2.15,6.49,2.15,10.42s-.72,7.4-2.15,10.42c-1.44,3.02-3.47,5.35-6.11,6.99-2.64,1.64-5.66,2.46-9.05,2.46h-33.49V20.78Z"/><polygon class="cls-1" points="417.61 131.61 481.77 131.61 481.77 114.56 417.61 114.56 417.61 3.82 399.68 3.82 399.68 131.61 408.64 131.61 417.61 131.61"/><path class="cls-1" d="M521.28,103.57h51.57l9.63,28.04h19.34L554.72,3.82h-15.29l-47.11,127.79h19.34l9.63-28.04Zm25.79-75.06l19.93,58.01h-39.86l19.93-58.01Z"/><path class="cls-1" d="M705.98,115.09c3.05-5.27,4.57-11.37,4.57-18.28v-.26c0-5.04-1-9.73-2.99-14.06-1.99-4.34-4.86-7.95-8.61-10.85-3.75-2.9-8.2-4.73-13.36-5.49,5.16-.94,9.48-2.77,12.96-5.49,3.49-2.72,6.08-6.01,7.78-9.84,1.7-3.84,2.55-7.95,2.55-12.35,0-7.15-1.38-13.3-4.13-18.46-2.75-5.16-6.91-9.14-12.48-11.95-5.57-2.81-12.48-4.22-20.74-4.22h-50.36v127.79h51.86c7.56,0,14.18-1.44,19.86-4.31,5.68-2.87,10.05-6.94,13.1-12.22Zm-37.71-94.66c7.5,0,13.12,1.58,16.88,4.75,3.75,3.16,5.62,7.94,5.62,14.33s-1.69,10.69-5.05,13.8c-3.37,3.11-8.36,4.66-14.99,4.66h-31.73V20.43h29.27Zm24.17,74.79c0,6.27-2.08,11.13-6.24,14.59-4.16,3.46-10.78,5.19-19.86,5.19h-27.33v-40.87h31.73c5.04,0,9.17,.83,12.39,2.5,3.22,1.67,5.58,4.06,7.08,7.16,1.49,3.11,2.24,6.83,2.24,11.16v.26Z"/><rect class="cls-1" x="785.69" y="3.82" width="17.93" height="127.79"/><path class="cls-1" d="M895.21,110.91c-5.1,3.43-12.28,5.14-21.53,5.14-6.86,0-13.21-1.05-19.07-3.16-5.86-2.11-11.22-5.27-16.08-9.49l-11.16,13.71c4.16,3.52,8.63,6.45,13.4,8.79,4.77,2.34,9.92,4.1,15.42,5.27,5.51,1.17,11.34,1.76,17.49,1.76,9.9,0,18.35-1.45,25.36-4.35s12.35-7.12,16.04-12.66,5.54-12.2,5.54-20v-.18c0-8.38-1.74-14.99-5.23-19.82s-7.82-8.33-13.01-10.5c-5.19-2.17-11.64-4.04-19.38-5.62-.29-.06-.62-.12-.97-.18-.35-.06-.67-.12-.97-.18-.23-.06-.45-.1-.66-.13-.21-.03-.43-.07-.66-.13-6.62-1.29-11.79-2.53-15.51-3.74-3.72-1.2-6.83-3.06-9.32-5.58-2.49-2.52-3.74-5.98-3.74-10.37v-.09c0-6.39,2.42-11.32,7.25-14.81,4.83-3.49,11.62-5.23,20.35-5.23,4.86,0,9.71,.89,14.55,2.68,4.83,1.79,9.68,4.47,14.55,8.04l10.2-14.24c-4.16-2.99-8.39-5.46-12.7-7.43-4.31-1.96-8.67-3.44-13.1-4.44-4.42-1-8.92-1.49-13.49-1.49-9.55,0-17.73,1.47-24.52,4.39-6.8,2.93-11.97,7.19-15.51,12.79-3.55,5.6-5.32,12.35-5.32,20.26v.09c0,9.02,1.9,15.98,5.71,20.87,3.81,4.89,8.39,8.26,13.75,10.11s12.32,3.5,20.87,4.97l1.32,.26c.18,.06,.37,.09,.57,.09s.4,.03,.57,.09c5.8,1.05,10.53,2.21,14.19,3.47,3.66,1.26,6.65,3.19,8.96,5.8,2.31,2.61,3.47,6.14,3.47,10.59v.09c0,6.27-2.55,11.12-7.65,14.55Z"/><path class="cls-1" d="M23.64,287.04c6.71,3.93,14.49,5.89,23.33,5.89,7.26,0,13.97-1.57,20.13-4.7,6.15-3.13,11.31-7.57,15.47-13.32,4.16-5.74,6.97-12.39,8.44-19.95h-18.37c-1.11,4.28-2.97,7.97-5.58,11.07-2.61,3.11-5.66,5.45-9.14,7.03-3.49,1.58-7.13,2.37-10.94,2.37-5.22,0-9.79-1.24-13.71-3.74-3.93-2.49-6.97-6.02-9.14-10.59-2.17-4.57-3.25-9.84-3.25-15.82v-35.07c0-6.03,1.08-11.32,3.25-15.86,2.17-4.54,5.21-8.07,9.14-10.59,3.92-2.52,8.5-3.78,13.71-3.78,3.75,0,7.38,.85,10.9,2.55,3.52,1.7,6.58,4.12,9.18,7.25,2.61,3.14,4.47,6.69,5.58,10.68h18.37c-1.47-7.56-4.26-14.21-8.39-19.95-4.13-5.74-9.27-10.18-15.42-13.32-6.15-3.13-12.89-4.7-20.21-4.7-8.85,0-16.63,1.98-23.33,5.93-6.71,3.96-11.91,9.54-15.6,16.74s-5.54,15.56-5.54,25.05v35.07c0,9.49,1.85,17.84,5.54,25.05s8.89,12.77,15.6,16.7Z"/><path class="cls-1" d="M131.83,287.35c6.71,3.72,14.78,5.58,24.21,5.58s17.61-1.86,24.35-5.58c6.74-3.72,11.87-9.14,15.38-16.26s5.27-15.69,5.27-25.71v-81.56h-17.93v82.18c0,9.32-2.36,16.52-7.08,21.62-4.72,5.1-11.38,7.65-20,7.65s-15.18-2.55-19.86-7.65c-4.69-5.1-7.03-12.3-7.03-21.62v-82.18h-17.93v81.56c0,10.02,1.76,18.59,5.27,25.71s8.63,12.54,15.34,16.26Z"/><path class="cls-1" d="M299.26,232.99c5.59-3.05,9.95-7.37,13.05-12.96,3.1-5.59,4.66-12.05,4.66-19.38s-1.54-13.78-4.61-19.38c-3.08-5.59-7.41-9.92-13.01-12.96-5.6-3.05-12.08-4.57-19.47-4.57h-50.71v127.88h17.93v-54.05h26.69l27.27,54.05h21.27l-29.47-55.93c2.24-.7,4.38-1.6,6.4-2.7Zm-52.16-52.21h33.49c3.46,0,6.49,.82,9.1,2.46,2.61,1.64,4.63,3.97,6.06,6.99,1.44,3.02,2.15,6.49,2.15,10.42s-.72,7.4-2.15,10.42c-1.44,3.02-3.47,5.35-6.11,6.99-2.64,1.64-5.66,2.46-9.05,2.46h-33.49v-39.73Z"/><path class="cls-1" d="M416.6,232.99c5.59-3.05,9.95-7.37,13.05-12.96,3.1-5.59,4.66-12.05,4.66-19.38s-1.54-13.78-4.61-19.38c-3.08-5.59-7.41-9.92-13.01-12.96-5.6-3.05-12.08-4.57-19.47-4.57h-50.71v127.88h17.93v-54.05h26.69l27.27,54.05h21.27l-29.47-55.93c2.24-.7,4.38-1.6,6.4-2.7Zm-52.16-52.21h33.49c3.46,0,6.49,.82,9.1,2.46,2.61,1.64,4.63,3.97,6.06,6.99,1.44,3.02,2.15,6.49,2.15,10.42s-.72,7.4-2.15,10.42c-1.44,3.02-3.47,5.35-6.11,6.99-2.64,1.64-5.66,2.46-9.05,2.46h-33.49v-39.73Z"/><polygon class="cls-1" points="472.54 163.82 463.84 163.82 463.84 291.61 472.54 291.61 481.77 291.61 545.93 291.61 545.93 274.56 481.77 274.56 481.77 236.68 536.26 236.68 536.26 219.63 481.77 219.63 481.77 180.87 545.93 180.87 545.93 163.82 481.77 163.82 472.54 163.82"/><polygon class="cls-1" points="648.06 259.27 587.68 163.82 571.42 163.82 571.42 291.52 589.17 291.52 589.17 197.52 649.38 291.52 665.81 291.52 665.81 163.82 648.06 163.82 648.06 259.27"/><polygon class="cls-1" points="686.9 180.87 723.03 180.87 723.03 291.61 740.96 291.61 740.96 180.87 777.08 180.87 777.08 163.82 686.9 163.82 686.9 180.87"/><polygon class="cls-1" points="812.59 163.82 794.66 163.82 794.66 291.61 803.62 291.61 812.59 291.61 876.75 291.61 876.75 274.56 812.59 274.56 812.59 163.82"/><polygon class="cls-1" points="949.08 163.82 921.13 221.47 893.18 163.82 873.23 163.82 912.17 239.67 912.17 291.61 930.1 291.61 930.1 239.67 969.03 163.82 949.08 163.82"/><path class="cls-2" d="M70.97,328.34c-6.8-3.9-14.65-5.84-23.55-5.84s-16.76,1.95-23.55,5.84c-6.8,3.9-12.06,9.4-15.78,16.52-3.72,7.12-5.58,15.37-5.58,24.74v36.21c0,9.38,1.86,17.62,5.58,24.74,3.72,7.12,8.98,12.63,15.78,16.52,6.8,3.9,14.65,5.84,23.55,5.84s16.76-1.95,23.55-5.84c6.8-3.9,12.05-9.4,15.78-16.52,3.72-7.12,5.58-15.37,5.58-24.74v-36.21c0-9.37-1.86-17.62-5.58-24.74-3.72-7.12-8.98-12.63-15.78-16.52Zm2.99,78.09c0,5.74-1.1,10.8-3.3,15.16-2.2,4.37-5.3,7.73-9.32,10.11-4.01,2.37-8.66,3.56-13.93,3.56s-9.92-1.19-13.93-3.56c-4.01-2.37-7.12-5.74-9.32-10.11-2.2-4.36-3.3-9.42-3.3-15.16v-37.44c0-5.74,1.1-10.8,3.3-15.16,2.2-4.36,5.3-7.73,9.32-10.11,4.01-2.37,8.66-3.56,13.93-3.56s9.92,1.19,13.93,3.56c4.01,2.37,7.12,5.74,9.32,10.11,2.2,4.37,3.3,9.42,3.3,15.16v37.44Z"/><path class="cls-2" d="M189.18,328.7c-5.8-3.25-12.51-4.88-20.13-4.88h-49.48v127.79h17.93v-49.57h31.55c7.62,0,14.33-1.61,20.13-4.83,5.8-3.22,10.3-7.78,13.49-13.67,3.19-5.89,4.79-12.73,4.79-20.52s-1.6-14.65-4.79-20.57c-3.19-5.92-7.69-10.5-13.49-13.75Zm-2.5,45.83c-1.61,3.34-3.88,5.92-6.81,7.73-2.93,1.82-6.33,2.72-10.2,2.72h-32.17v-44.12h32.17c3.87,0,7.26,.92,10.2,2.77,2.93,1.85,5.2,4.44,6.81,7.78,1.61,3.34,2.42,7.21,2.42,11.6s-.81,8.17-2.42,11.51Z"/><polygon class="cls-2" points="238.57 323.82 229.87 323.82 229.87 451.61 238.57 451.61 247.8 451.61 311.96 451.61 311.96 434.56 247.8 434.56 247.8 396.68 302.29 396.68 302.29 379.63 247.8 379.63 247.8 340.87 311.96 340.87 311.96 323.82 247.8 323.82 238.57 323.82"/><polygon class="cls-2" points="414.09 419.27 353.71 323.82 337.45 323.82 337.45 451.52 355.21 451.52 355.21 357.52 415.41 451.52 431.85 451.52 431.85 323.82 414.09 323.82 414.09 419.27"/></g></g></svg>