<svg xmlns="http://www.w3.org/2000/svg" width="53.5" height="53.5" viewBox="0 0 53.5 53.5">
  <path id="Icon_awesome-link" data-name="Icon awesome-link" d="M34.128,19.372a15.875,15.875,0,0,1,.038,22.423l-.038.039-7.022,7.022A15.883,15.883,0,0,1,4.645,26.394l3.877-3.877a1.67,1.67,0,0,1,2.852,1.108,19.254,19.254,0,0,0,1.013,5.509,1.682,1.682,0,0,1-.4,1.736l-1.367,1.367A7.523,7.523,0,1,0,21.2,42.944l7.022-7.021a7.522,7.522,0,0,0,0-10.64,7.827,7.827,0,0,0-1.081-.9,1.676,1.676,0,0,1-.726-1.317,4.162,4.162,0,0,1,1.222-3.114l2.2-2.2a1.679,1.679,0,0,1,2.151-.181,15.933,15.933,0,0,1,2.144,1.8ZM48.855,4.645a15.9,15.9,0,0,0-22.462,0l-7.022,7.022-.038.039a15.886,15.886,0,0,0,2.182,24.22,1.679,1.679,0,0,0,2.151-.181l2.2-2.2a4.162,4.162,0,0,0,1.222-3.114,1.676,1.676,0,0,0-.726-1.317,7.828,7.828,0,0,1-1.081-.9,7.522,7.522,0,0,1,0-10.64L32.3,10.556A7.523,7.523,0,1,1,42.876,21.263L41.508,22.63a1.682,1.682,0,0,0-.4,1.736,19.254,19.254,0,0,1,1.013,5.509,1.67,1.67,0,0,0,2.852,1.108l3.877-3.877a15.9,15.9,0,0,0,0-22.462Z" transform="translate(53.5 53.5) rotate(180)" fill="#fff"/>
</svg>
