<?xml version="1.0" encoding="UTF-8"?><svg id="Layer_2" xmlns="http://www.w3.org/2000/svg" viewBox="0 0 474.6 135.43"><defs><style>.cls-1{fill:none;stroke:#fff;stroke-miterlimit:10;stroke-width:5px;}</style></defs><g id="Layer_2-2"><g><polygon class="cls-1" points="79.14 99.27 18.76 3.82 2.5 3.82 2.5 131.52 20.25 131.52 20.25 37.52 80.46 131.52 96.89 131.52 96.89 3.82 79.14 3.82 79.14 99.27"/><polygon class="cls-1" points="137.24 3.82 128.54 3.82 128.54 131.61 137.24 131.61 146.46 131.61 210.62 131.61 210.62 114.56 146.46 114.56 146.46 76.68 200.96 76.68 200.96 59.63 146.46 59.63 146.46 20.87 210.62 20.87 210.62 3.82 146.46 3.82 137.24 3.82"/><polygon class="cls-1" points="328.84 104.01 302.65 3.82 290.34 3.82 264.15 104.01 241.56 3.82 222.93 3.82 254.13 131.61 272.41 131.61 297.02 42.31 320.58 131.61 338.86 131.61 370.06 3.82 351.43 3.82 328.84 104.01"/><path class="cls-1" d="M466.87,75.93c-3.49-4.83-7.82-8.33-13.01-10.5-5.19-2.17-11.65-4.04-19.38-5.62-.29-.06-.62-.12-.97-.18-.35-.06-.67-.12-.97-.18-.23-.06-.45-.1-.66-.13-.21-.03-.43-.07-.66-.13-6.62-1.29-11.79-2.53-15.51-3.74-3.72-1.2-6.83-3.06-9.32-5.58-2.49-2.52-3.74-5.98-3.74-10.37v-.09c0-6.39,2.42-11.32,7.25-14.81,4.83-3.49,11.62-5.23,20.35-5.23,4.86,0,9.71,.89,14.55,2.68,4.83,1.79,9.68,4.47,14.55,8.04l10.2-14.24c-4.16-2.99-8.39-5.46-12.7-7.43-4.31-1.96-8.67-3.44-13.1-4.44-4.42-1-8.92-1.49-13.49-1.49-9.55,0-17.73,1.47-24.52,4.39-6.8,2.93-11.97,7.19-15.51,12.79-3.55,5.6-5.32,12.35-5.32,20.26v.09c0,9.02,1.9,15.98,5.71,20.87,3.81,4.89,8.39,8.26,13.75,10.11s12.32,3.5,20.87,4.97l1.32,.26c.18,.06,.37,.09,.57,.09s.4,.03,.57,.09c5.8,1.05,10.53,2.21,14.19,3.47,3.66,1.26,6.65,3.19,8.96,5.8,2.31,2.61,3.47,6.14,3.47,10.59v.09c0,6.27-2.55,11.12-7.65,14.55s-12.28,5.14-21.53,5.14c-6.86,0-13.21-1.05-19.07-3.16-5.86-2.11-11.22-5.27-16.08-9.49l-11.16,13.71c4.16,3.52,8.63,6.45,13.4,8.79,4.77,2.34,9.92,4.1,15.42,5.27,5.51,1.17,11.34,1.76,17.49,1.76,9.9,0,18.35-1.45,25.36-4.35,7-2.9,12.35-7.12,16.04-12.66s5.54-12.2,5.54-20v-.18c0-8.38-1.74-14.99-5.23-19.82Z"/></g></g></svg>