<?xml version="1.0" encoding="UTF-8"?><svg id="Layer_2" xmlns="http://www.w3.org/2000/svg" viewBox="0 0 823.7 135.43"><defs><style>.cls-1{fill:none;stroke:#fff;stroke-miterlimit:10;stroke-width:5px;}</style></defs><g id="Layer_4"><g><path class="cls-1" d="M72.11,8.7c-5.8-3.25-12.51-4.88-20.13-4.88H2.5v127.79H20.43v-49.57h31.55c7.62,0,14.33-1.61,20.13-4.83,5.8-3.22,10.3-7.78,13.49-13.67,3.19-5.89,4.79-12.73,4.79-20.52s-1.6-14.65-4.79-20.57c-3.19-5.92-7.69-10.5-13.49-13.75Zm-2.5,45.83c-1.61,3.34-3.88,5.92-6.81,7.73-2.93,1.82-6.33,2.72-10.2,2.72H20.43V20.87H52.6c3.87,0,7.26,.92,10.2,2.77,2.93,1.85,5.2,4.44,6.81,7.78,1.61,3.34,2.42,7.21,2.42,11.6s-.81,8.17-2.42,11.51Z"/><path class="cls-1" d="M182.9,72.99c5.59-3.05,9.95-7.37,13.05-12.96,3.1-5.59,4.66-12.05,4.66-19.38s-1.54-13.78-4.61-19.38c-3.08-5.59-7.41-9.92-13.01-12.96-5.6-3.05-12.08-4.57-19.47-4.57h-50.71v127.88h17.93v-54.05h26.69l27.27,54.05h21.27l-29.47-55.93c2.24-.7,4.38-1.6,6.4-2.7Zm-52.16-52.21h33.49c3.46,0,6.49,.82,9.1,2.46,2.61,1.64,4.63,3.97,6.06,6.99,1.44,3.02,2.15,6.49,2.15,10.42s-.72,7.4-2.15,10.42c-1.44,3.02-3.47,5.35-6.11,6.99-2.64,1.64-5.66,2.46-9.05,2.46h-33.49V20.78Z"/><path class="cls-1" d="M292.45,8.34c-6.8-3.9-14.65-5.84-23.55-5.84s-16.76,1.95-23.55,5.84c-6.8,3.9-12.06,9.4-15.78,16.52-3.72,7.12-5.58,15.37-5.58,24.74v36.21c0,9.38,1.86,17.62,5.58,24.74,3.72,7.12,8.98,12.63,15.78,16.52,6.8,3.9,14.65,5.84,23.55,5.84s16.76-1.95,23.55-5.84c6.8-3.9,12.05-9.4,15.78-16.52,3.72-7.12,5.58-15.37,5.58-24.74V49.61c0-9.37-1.86-17.62-5.58-24.74-3.72-7.12-8.98-12.63-15.78-16.52Zm2.99,78.09c0,5.74-1.1,10.8-3.3,15.16-2.2,4.37-5.3,7.73-9.32,10.11-4.01,2.37-8.66,3.56-13.93,3.56s-9.92-1.19-13.93-3.56c-4.01-2.37-7.12-5.74-9.32-10.11-2.2-4.36-3.3-9.42-3.3-15.16V48.99c0-5.74,1.1-10.8,3.3-15.16,2.2-4.36,5.3-7.73,9.32-10.11,4.01-2.37,8.66-3.56,13.93-3.56s9.92,1.19,13.93,3.56c4.01,2.37,7.12,5.74,9.32,10.11,2.2,4.37,3.3,9.42,3.3,15.16v37.44Z"/><path class="cls-1" d="M380.69,90.92c0,7.85-1.92,13.95-5.76,18.28-3.84,4.34-9.24,6.5-16.22,6.5-4.1,0-7.71-.79-10.81-2.37-3.11-1.58-5.48-3.81-7.12-6.68l-14.68,10.55c3.57,4.98,8.2,8.85,13.89,11.6,5.68,2.75,11.92,4.13,18.72,4.13,8.44,0,15.64-1.64,21.62-4.92,5.98-3.28,10.52-8.06,13.62-14.33,3.1-6.27,4.66-13.83,4.66-22.68V3.82h-17.93V90.92Z"/><polygon class="cls-1" points="438.96 3.82 430.26 3.82 430.26 131.61 438.96 131.61 448.19 131.61 512.35 131.61 512.35 114.56 448.19 114.56 448.19 76.68 502.69 76.68 502.69 59.63 448.19 59.63 448.19 20.87 512.35 20.87 512.35 3.82 448.19 3.82 438.96 3.82"/><path class="cls-1" d="M556.83,34.36c2.17-4.54,5.21-8.07,9.14-10.59,3.92-2.52,8.5-3.78,13.71-3.78,3.75,0,7.38,.85,10.9,2.55,3.52,1.7,6.58,4.12,9.18,7.25,2.61,3.14,4.47,6.69,5.58,10.68h18.37c-1.47-7.56-4.26-14.21-8.39-19.95-4.13-5.74-9.27-10.18-15.42-13.32-6.15-3.13-12.89-4.7-20.21-4.7-8.85,0-16.63,1.98-23.33,5.93-6.71,3.96-11.91,9.54-15.6,16.74s-5.54,15.56-5.54,25.05v35.07c0,9.49,1.85,17.84,5.54,25.05s8.89,12.77,15.6,16.7c6.71,3.93,14.49,5.89,23.33,5.89,7.26,0,13.97-1.57,20.13-4.7,6.15-3.13,11.31-7.57,15.47-13.32,4.16-5.74,6.97-12.39,8.44-19.95h-18.37c-1.11,4.28-2.97,7.97-5.58,11.07-2.61,3.11-5.66,5.45-9.14,7.03-3.49,1.58-7.13,2.37-10.94,2.37-5.22,0-9.79-1.24-13.71-3.74-3.93-2.49-6.97-6.02-9.14-10.59-2.17-4.57-3.25-9.84-3.25-15.82V50.22c0-6.03,1.08-11.32,3.25-15.86Z"/><polygon class="cls-1" points="631.62 20.87 667.74 20.87 667.74 131.61 685.67 131.61 685.67 20.87 721.8 20.87 721.8 3.82 631.62 3.82 631.62 20.87"/><path class="cls-1" d="M815.97,75.93c-3.49-4.83-7.82-8.33-13.01-10.5-5.19-2.17-11.65-4.04-19.38-5.62-.29-.06-.62-.12-.97-.18-.35-.06-.67-.12-.97-.18-.23-.06-.45-.1-.66-.13-.21-.03-.43-.07-.66-.13-6.62-1.29-11.79-2.53-15.51-3.74-3.72-1.2-6.83-3.06-9.32-5.58-2.49-2.52-3.74-5.98-3.74-10.37v-.09c0-6.39,2.42-11.32,7.25-14.81,4.83-3.49,11.62-5.23,20.35-5.23,4.86,0,9.71,.89,14.55,2.68,4.83,1.79,9.68,4.47,14.55,8.04l10.2-14.24c-4.16-2.99-8.39-5.46-12.7-7.43-4.31-1.96-8.67-3.44-13.1-4.44-4.42-1-8.92-1.49-13.49-1.49-9.55,0-17.73,1.47-24.52,4.39-6.8,2.93-11.97,7.19-15.51,12.79-3.55,5.6-5.32,12.35-5.32,20.26v.09c0,9.02,1.9,15.98,5.71,20.87,3.81,4.89,8.39,8.26,13.75,10.11s12.32,3.5,20.87,4.97l1.32,.26c.18,.06,.37,.09,.57,.09s.4,.03,.57,.09c5.8,1.05,10.53,2.21,14.19,3.47,3.66,1.26,6.65,3.19,8.96,5.8,2.31,2.61,3.47,6.14,3.47,10.59v.09c0,6.27-2.55,11.12-7.65,14.55s-12.28,5.14-21.53,5.14c-6.86,0-13.21-1.05-19.07-3.16-5.86-2.11-11.22-5.27-16.08-9.49l-11.16,13.71c4.16,3.52,8.63,6.45,13.4,8.79,4.77,2.34,9.92,4.1,15.42,5.27,5.51,1.17,11.34,1.76,17.49,1.76,9.9,0,18.35-1.45,25.36-4.35,7-2.9,12.35-7.12,16.04-12.66s5.54-12.2,5.54-20v-.18c0-8.38-1.74-14.99-5.23-19.82Z"/></g></g></svg>