<svg xmlns="http://www.w3.org/2000/svg" width="34.875" height="34.875" viewBox="0 0 34.875 34.875">
  <path id="Icon_awesome-arrow-alt-circle-right" data-name="Icon awesome-arrow-alt-circle-right" d="M18,.563A17.438,17.438,0,1,1,.563,18,17.434,17.434,0,0,1,18,.563ZM9.844,21.094H18v4.985a.844.844,0,0,0,1.441.6L27.478,18.6a.836.836,0,0,0,0-1.188L19.441,9.323a.844.844,0,0,0-1.441.6v4.985H9.844A.846.846,0,0,0,9,15.75v4.5A.846.846,0,0,0,9.844,21.094Z" transform="translate(-0.563 -0.563)" fill="#fff"/>
</svg>
